<?xml version="1.0" encoding="UTF-8" standalone="no"?>
<!DOCTYPE svg PUBLIC "-//W3C//DTD SVG 1.1//EN" "http://www.w3.org/Graphics/SVG/1.1/DTD/svg11.dtd">
<svg width="100%" height="100%" viewBox="0 0 627 514" version="1.1" xmlns="http://www.w3.org/2000/svg" xmlns:xlink="http://www.w3.org/1999/xlink" xml:space="preserve" xmlns:serif="http://www.serif.com/" style="fill-rule:evenodd;clip-rule:evenodd;stroke-linecap:round;stroke-linejoin:round;stroke-miterlimit:1.5;">
    <g transform="matrix(0.537504,0,0,0.537504,33.7218,163.831)">
        <g transform="matrix(0.965926,0.258819,-0.258819,0.965926,101.773,-308.42)">
            <path d="M1039.37,18.605C1039.37,8.336 1031.03,0 1020.77,0L18.605,0C8.336,0 0,8.336 0,18.605L0,631.002C0,641.27 8.336,649.606 18.605,649.606L1020.77,649.606C1031.03,649.606 1039.37,641.27 1039.37,631.002L1039.37,18.605Z" style="fill:rgb(245,247,249);"/>
            <clipPath id="_clip1">
                <path d="M1039.37,18.605C1039.37,8.336 1031.03,0 1020.77,0L18.605,0C8.336,0 0,8.336 0,18.605L0,631.002C0,641.27 8.336,649.606 18.605,649.606L1020.77,649.606C1031.03,649.606 1039.37,641.27 1039.37,631.002L1039.37,18.605Z"/>
            </clipPath>
            <g clip-path="url(#_clip1)">
                <g transform="matrix(0.811834,0,0,0.811834,8.52651e-14,0)">
                    <text x="285.931px" y="556.214px" style="font-family:'PalaceScriptMT', 'Palace Script MT', cursive;font-style:italic;font-size:550px;fill:white;">QA</text>
                </g>
                <g transform="matrix(0.893017,0,0,0.893017,6.31789,6.31789)">
                    <text x="100.386px" y="130.789px" style="font-family:'Montserrat-Regular', 'Montserrat';font-size:66.667px;">$25</text>
                </g>
                <g transform="matrix(0.893017,0,0,0.893017,70.3179,-68.7267)">
                    <text x="152.176px" y="449.841px" style="font-family:'EdwardianScriptITC', 'Edwardian Script ITC', cursive;font-stretch:semi-expanded;font-size:175px;">Queen Anne</text>
                    <text x="319.549px" y="554.008px" style="font-family:'Montserrat-Regular', 'Montserrat';font-size:54.167px;">Nails an<tspan x="534.103px " y="554.008px ">d</tspan> Sp<tspan x="654.895px " y="554.008px ">a</tspan></text>
                </g>
            </g>
            <path d="M1039.37,18.605C1039.37,8.336 1031.03,0 1020.77,0L18.605,0C8.336,0 0,8.336 0,18.605L0,631.002C0,641.27 8.336,649.606 18.605,649.606L1020.77,649.606C1031.03,649.606 1039.37,641.27 1039.37,631.002L1039.37,18.605Z" style="fill:none;stroke:rgb(97,109,137);stroke-width:1.12px;"/>
        </g>
        <g transform="matrix(0.990268,0.139173,-0.139173,0.990268,50.2614,-151.861)">
            <path d="M1039.37,18.605C1039.37,8.336 1031.03,0 1020.77,0L18.605,0C8.336,0 0,8.336 0,18.605L0,631.002C0,641.27 8.336,649.606 18.605,649.606L1020.77,649.606C1031.03,649.606 1039.37,641.27 1039.37,631.002L1039.37,18.605Z" style="fill:rgb(245,247,249);"/>
            <clipPath id="_clip2">
                <path d="M1039.37,18.605C1039.37,8.336 1031.03,0 1020.77,0L18.605,0C8.336,0 0,8.336 0,18.605L0,631.002C0,641.27 8.336,649.606 18.605,649.606L1020.77,649.606C1031.03,649.606 1039.37,641.27 1039.37,631.002L1039.37,18.605Z"/>
            </clipPath>
            <g clip-path="url(#_clip2)">
                <g transform="matrix(0.811834,0,0,0.811834,8.52651e-14,0)">
                    <text x="285.931px" y="556.214px" style="font-family:'PalaceScriptMT', 'Palace Script MT', cursive;font-style:italic;font-size:550px;fill:white;">QA</text>
                </g>
                <g transform="matrix(0.893017,0,0,0.893017,6.31789,6.31789)">
                    <text x="97.253px" y="130.789px" style="font-family:'Montserrat-Regular', 'Montserrat';font-size:66.667px;">$50</text>
                </g>
                <g transform="matrix(0.893017,0,0,0.893017,70.3179,-68.7267)">
                    <text x="152.176px" y="449.841px" style="font-family:'EdwardianScriptITC', 'Edwardian Script ITC', cursive;font-stretch:semi-expanded;font-size:175px;">Queen Anne</text>
                    <text x="319.549px" y="554.008px" style="font-family:'Montserrat-Regular', 'Montserrat';font-size:54.167px;">Nails an<tspan x="534.103px " y="554.008px ">d</tspan> Sp<tspan x="654.895px " y="554.008px ">a</tspan></text>
                </g>
            </g>
            <path d="M1039.37,18.605C1039.37,8.336 1031.03,0 1020.77,0L18.605,0C8.336,0 0,8.336 0,18.605L0,631.002C0,641.27 8.336,649.606 18.605,649.606L1020.77,649.606C1031.03,649.606 1039.37,641.27 1039.37,631.002L1039.37,18.605Z" style="fill:none;stroke:rgb(97,109,137);stroke-width:1.12px;"/>
        </g>
        <path d="M1039.37,18.605C1039.37,8.336 1031.03,0 1020.77,0L18.605,0C8.336,0 0,8.336 0,18.605L0,631.002C0,641.27 8.336,649.606 18.605,649.606L1020.77,649.606C1031.03,649.606 1039.37,641.27 1039.37,631.002L1039.37,18.605Z" style="fill:rgb(245,247,249);"/>
        <clipPath id="_clip3">
            <path d="M1039.37,18.605C1039.37,8.336 1031.03,0 1020.77,0L18.605,0C8.336,0 0,8.336 0,18.605L0,631.002C0,641.27 8.336,649.606 18.605,649.606L1020.77,649.606C1031.03,649.606 1039.37,641.27 1039.37,631.002L1039.37,18.605Z"/>
        </clipPath>
        <g clip-path="url(#_clip3)">
            <g transform="matrix(0.811834,0,0,0.811834,8.52651e-14,0)">
                <text x="285.931px" y="556.214px" style="font-family:'PalaceScriptMT', 'Palace Script MT', cursive;font-style:italic;font-size:550px;fill:white;">QA</text>
            </g>
            <g transform="matrix(0.893017,0,0,0.893017,6.31789,6.31789)">
                <text x="100.653px" y="130.789px" style="font-family:'Montserrat-Regular', 'Montserrat';font-size:66.667px;">$<tspan x="140.986px 178.986px " y="130.789px 130.789px ">75</tspan></text>
            </g>
            <g transform="matrix(0.893017,0,0,0.893017,70.3179,-68.7267)">
                <text x="152.176px" y="449.841px" style="font-family:'EdwardianScriptITC', 'Edwardian Script ITC', cursive;font-stretch:semi-expanded;font-size:175px;">Queen Anne</text>
                <text x="319.549px" y="554.008px" style="font-family:'Montserrat-Regular', 'Montserrat';font-size:54.167px;">Nails an<tspan x="534.103px " y="554.008px ">d</tspan> Sp<tspan x="654.895px " y="554.008px ">a</tspan></text>
            </g>
        </g>
        <path d="M1039.37,18.605C1039.37,8.336 1031.03,0 1020.77,0L18.605,0C8.336,0 0,8.336 0,18.605L0,631.002C0,641.27 8.336,649.606 18.605,649.606L1020.77,649.606C1031.03,649.606 1039.37,641.27 1039.37,631.002L1039.37,18.605Z" style="fill:none;stroke:rgb(97,109,137);stroke-width:1.12px;"/>
    </g>
</svg>
